<svg id="Pictograms" xmlns="http://www.w3.org/2000/svg" viewBox="0 0 240 240"><defs><style>.cls-1{fill:#008fd3;}.cls-2,.cls-3,.cls-4{fill:#f0ab00;}.cls-3{opacity:0.7;}.cls-4{opacity:0.4;}</style></defs><title>281308-pictogram</title><path d="M108,151.5H84v12h4v-8h64v8h4v-12H132V132h80V28H28V132h80Zm4,0v-19h16v19ZM32,32H208v96H32ZM178.9,172.5H61.1l-35,39.5h187.9ZM194.4,196H45.6l7.1-8H187.3ZM62.9,176.5H177.1l6.66,7.5H56.24ZM42.25,199.77V200h155v-.79l7.8,8.79H34.95Z"/><rect class="cls-1" x="40" y="40" width="160" height="80"/><rect class="cls-2" x="40" y="40" width="40" height="80"/><rect class="cls-3" x="80" y="40" width="40" height="80"/><rect class="cls-4" x="120" y="40" width="40" height="80"/></svg>