<svg xmlns="http://www.w3.org/2000/svg" viewBox="0 0 248 248"><defs><style>.cls-1{fill:#970a82;}.cls-2,.cls-3,.cls-4{fill:#f0ab00;}.cls-3{opacity:0.4;}.cls-4{opacity:0.7;}</style></defs><title>282139-pictogram</title><g id="outlines_--_combound_path" data-name="outlines -- combound path"><path d="M141.54,182.35l10-10L55.17,75.9,75.9,55.17,124,103.29l-2.83,2.83L75.9,60.83,60.83,75.9l45.29,45.29,51.12,51.12-7.59,7.58,37.8,7.56-7.56-37.8-7.58,7.59-30.39-30.39,2.83-2.83,27.56,27.56,10-10,10.2,51Z"/></g><g id="color_band" data-name="color band"><polygon class="cls-1" points="172.1 55.2 140.35 86.96 124.02 103.29 121.19 106.12 108.59 118.71 106.12 121.19 126.85 141.92 129.33 139.45 141.92 126.85 144.75 124.02 161.08 107.69 192.83 75.94 172.1 55.2"/><polygon class="cls-1" points="124.02 144.75 103.29 124.02 76.84 150.47 75.7 151.61 65.65 141.57 55.45 192.59 106.47 182.38 96.43 172.34 97.57 171.2 124.02 144.75"/></g><g id="_100_band" data-name="100% band"><polygon class="cls-2" points="106.47 182.38 55.45 192.59 65.65 141.57 75.7 151.61 76.84 150.47 97.57 171.2 96.43 172.34 106.47 182.38"/></g><g id="_40_band" data-name="40% band"><polygon class="cls-3" points="161.08 107.69 144.75 124.02 141.92 126.85 129.33 139.45 108.59 118.71 121.19 106.12 124.02 103.29 140.35 86.96 161.08 107.69"/><rect class="cls-4" x="81.73" y="132.95" width="37.41" height="29.32" transform="translate(-74.96 114.25) rotate(-45)"/><polygon class="cls-4" points="108.59 118.71 106.12 121.19 126.85 141.92 129.33 139.45 108.59 118.71"/></g></svg>