<svg id="Pictograms" xmlns="http://www.w3.org/2000/svg" viewBox="0 0 240 240"><defs><style>.cls-1{fill:#008fd3;}.cls-2,.cls-3,.cls-4{fill:#f0ab00;}.cls-3{opacity:0.7;}.cls-4{opacity:0.4;}</style></defs><title>281118-pictogram</title><path d="M180,196H64V40h9.91V36H60v8H48V212H176V200h8V180.71h-4Zm-8,12H52V48h8V200H172ZM152,28V68h40Zm4,9.66L182.34,64H156Z"/><polygon class="cls-1" points="152 68 152 28 72 28 72 68 72 108 72 148 72 188 192 188 192 148 192 108 192 68 152 68"/><rect class="cls-2" x="72" y="28" width="80" height="40"/><rect class="cls-3" x="72" y="68" width="120" height="40"/><rect class="cls-4" x="72" y="108" width="120" height="40"/></svg>