<svg id="Pictograms" xmlns="http://www.w3.org/2000/svg" viewBox="0 0 240 240"><defs><style>.cls-1{fill:#008fd3;}.cls-2,.cls-3,.cls-4{fill:#f0ab00;}.cls-3{opacity:0.7;}.cls-4{opacity:0.4;}</style></defs><title>281272-pictogram</title><polygon class="cls-1" points="168.44 71.75 131.63 63.22 131.66 63.27 119.65 75.28 106.21 88.72 106.17 88.68 115.76 124.43 151.47 133.97 164.9 120.54 176.92 108.52 168.44 71.75"/><polygon class="cls-2" points="176.92 108.52 168.44 71.75 131.63 63.22 176.92 108.52"/><polyline class="cls-3" points="176.92 108.52 131.67 63.26 119.65 75.28 164.9 120.54"/><polyline class="cls-4" points="164.9 120.54 119.65 75.28 106.21 88.72 151.47 133.97"/><path d="M210.88,97.73l-.11-.62-5.57-5.57L153,143.75l-44.11-12.46L96.43,87.18,148.63,35l-6.12-6.12-.62-.11C120.18,24.89,98.31,33.27,78.62,53c-20.59,20.59-27.21,52-17,80.39l-9.12,9.12,2.83,2.83L27,173.57l39.6,39.6L94.9,184.89l2.83,2.83,9.52-9.52c28.33,9.45,59.35,2.74,79.35-17.26C206.32,141.21,214.71,119.36,210.88,97.73ZM66.61,207.51,32.67,173.57l25.46-25.46,33.94,33.94ZM183.77,158.1c-19.2,19.2-49.19,25.45-76.39,15.91l-1.19-.42-8.46,8.46-39.6-39.6,8.1-8.1-.45-1.21c-10.26-27.22-4.1-57.59,15.68-77.37,13-13,33.68-27.43,59.12-23.21L143,35l-51,51,13.7,48.52,48.52,13.7,51-51L207.05,99C211.25,124.4,196.74,145.13,183.77,158.1Z"/></svg>