<svg id="Pictograms" xmlns="http://www.w3.org/2000/svg" viewBox="0 0 240 240"><defs><style>.cls-1{fill:none;}.cls-2{fill:#008fd3;}.cls-3{opacity:0.4;}.cls-4{fill:#f0ab00;}.cls-5{opacity:0.7;}</style></defs><title>281593-pictogram</title><path class="cls-1" d="M155.81,137.59a10.14,10.14,0,0,1-3.44,11.66v5.81h28.86V137.59Z"/><path class="cls-1" d="M140.13,155.07v-5.81a10.13,10.13,0,0,1-3.44-11.66H111.27v17.47Z"/><path class="cls-2" d="M195.17,109.89A10.17,10.17,0,0,0,187,114h-5.8V85.1H152.37v5.82a10.2,10.2,0,1,1-12.24,0V85.1H111.27V116h-8.8l-.6-.8a8.2,8.2,0,1,0,0,9.83l.6-.8h8.8v30.86h28.86v-5.81a10.2,10.2,0,1,1,12.24,0v5.81h28.86V126.21H187a10.19,10.19,0,1,0,8.14-16.32Z"/><g class="cls-3"><path class="cls-4" d="M87.12,120.08h0A8.19,8.19,0,0,0,101.87,125l.6-.8h8.8v13.37h25.42a10.19,10.19,0,0,1,19.12,0h25.42V126.21H187a10.19,10.19,0,0,0,18.34-6.13Z"/></g><g class="cls-5"><path class="cls-4" d="M155.81,102.59a10.18,10.18,0,0,1-19.12,0H111.27V116h-8.8l-.6-.8a8.19,8.19,0,0,0-14.75,4.92H205.37A10.19,10.19,0,0,0,187,114h-5.8V102.59Z"/></g><path class="cls-4" d="M111.27,102.58h25.42a10.14,10.14,0,0,1,3.45-11.66V85.1H111.27Z"/><path class="cls-4" d="M152.37,90.92a10.14,10.14,0,0,1,3.44,11.66h25.41V85.1H152.37Z"/><path d="M74.29,179.22A12.21,12.21,0,0,1,62.09,167a12.08,12.08,0,0,1,4.08-9.09v-2.86H37.31V124.22h8.81l.6.8a8.2,8.2,0,1,0,0-9.83l-.6.8H37.31V85.1H66.17V82.24a12.07,12.07,0,0,1-4.08-9.09,12.2,12.2,0,1,1,24.4,0,12.08,12.08,0,0,1-4.08,9.09V85.1h28.86V116h-8.8l-.6-.8a8.2,8.2,0,1,0,0,9.83l.6-.8h8.8v30.86H82.41v2.87A12.08,12.08,0,0,1,86.49,167,12.21,12.21,0,0,1,74.29,179.22Zm-33-28.15H70.17v8.8l-.8.6a8.2,8.2,0,1,0,9.83,0l-.8-.6v-8.8h28.86V128.21h-2.86a12.08,12.08,0,0,1-9.09,4.08,12.2,12.2,0,0,1,0-24.4,12.08,12.08,0,0,1,9.09,4.08h2.86V89.11H78.41V80.3l.8-.6a8.2,8.2,0,1,0-9.83,0l.8.6v8.8H41.31V112h2.87a12.08,12.08,0,0,1,9.09-4.08,12.2,12.2,0,1,1,0,24.4,12.08,12.08,0,0,1-9.09-4.08H41.31Z"/></svg>